<?xml version="1.0" encoding="UTF-8"?>
<svg xmlns="http://www.w3.org/2000/svg" viewBox="0 0 512 512">
  <defs>
    <style>
      .logo-path {
        fill: #fff;
      }
    </style>
  </defs>
  <path class="logo-path" d="M26.01,280.91c15.1-47.81,32.04-78.09,77.74-100.59,82.33-40.53,155.89-65.4,250.3-52.45,21.88,3,68.38,39.71,78.81,57.86,7.85,13.67-1.28,35.13,4.83,45.17,1.73,2.84,9.67,6.03,13.42,9.91,15,15.51,31.26,29.98,44.89,46.74l-238.41-.05-38.25,16.75h138.33c2.26,5.6,21.67,32.94,21.67,35v48.33H16.01l36.59-78.41c13.4-12.1,32.63-14.73,47.83-22.3,4.48-2.23,4.65-8.3,8.01-9.28,46.06-13.53,90.61-32.18,136.17-49.73l182.6-.74c9.93-3.25,3.99-27.55,5.45-36.18-2-2.25-28.89,16.65-34.98,16.65h-116.67l-5.04,13.31-2.8-11.14,42.84-22.17h-65c-6.02,0-33.72,9-41.63,11.7-34.02,11.62-143.23,55.71-170.06,73.27-1.55,1.02-3.59,2.98-3.31,5.02h66.67v3.33H26.01ZM376.01,344.25H117.68l-88.33,40h346.67v-40h-.01Z"/>
</svg>